<?xml version="1.0" standalone="no"?>
<!DOCTYPE svg PUBLIC "-//W3C//DTD SVG 20010904//EN"
 "http://www.w3.org/TR/2001/REC-SVG-20010904/DTD/svg10.dtd">
<svg version="1.0" xmlns="http://www.w3.org/2000/svg"
 width="260.000000pt" height="260.000000pt" viewBox="0 0 260.000000 260.000000"
 preserveAspectRatio="xMidYMid meet">
<metadata>
Created by potrace 1.11, written by Peter Selinger 2001-2013
</metadata>
<g transform="translate(0.000000,260.000000) scale(0.100000,-0.100000)"
fill="#000000" stroke="none">
<path d="M470 1800 l0 -90 205 0 206 0 -3 -347 c-3 -329 -4 -350 -24 -388 -59
-116 -247 -111 -352 10 -17 19 -33 35 -35 35 -7 0 -117 -139 -117 -148 0 -15
85 -89 127 -110 79 -41 149 -54 257 -50 125 6 197 31 256 90 102 102 110 149
110 671 l0 417 -315 0 -315 0 0 -90z"/>
<path d="M1400 1305 l0 -585 110 0 110 0 0 225 0 225 280 0 280 0 0 90 0 90
-280 0 -280 0 0 180 0 180 315 0 315 0 0 90 0 90 -425 0 -425 0 0 -585z"/>
</g>
</svg>
